<svg width="24" height="24" viewBox="0 0 24 24" fill="none" xmlns="http://www.w3.org/2000/svg">
<path d="M4.80469 17.0724L0 21.8865C0.117188 22.591 0.28125 22.9432 0.703125 23.3894C1.04062 23.7464 1.82812 23.9452 2.17969 24L6.9375 19.1859L4.80469 17.0724Z" fill="white"/>
<path d="M5.01562 13.2916L4.05469 14.2779L9.70312 19.9609L10.7109 18.9746L9.1875 17.4481L23.4844 5.09589L23.9766 0L18.8438 0.540117L6.58594 14.8415L5.01562 13.2916Z" fill="white"/>
<path d="M0.515625 5.09589L0.046875 0L5.15625 0.516634L11.0859 7.44423L7.73438 11.319L0.515625 5.09589Z" fill="white"/>
<path d="M16.1016 13.3151L13.1016 15.8982L14.8359 17.4247L13.2891 18.9746L14.2734 19.9843L19.9688 14.3014L18.9609 13.2681L17.4141 14.8415L16.1016 13.3151Z" fill="white"/>
<path d="M21.8438 24L17.0625 19.1859L19.1953 17.0724L24 21.8395C23.9062 22.4971 23.8828 22.638 23.3906 23.2955C22.9969 23.8215 22.1953 23.9843 21.8438 24Z" fill="white"/>
</svg>
