<svg width="24" height="24" viewBox="0 0 24 24" fill="none" xmlns="http://www.w3.org/2000/svg">
<path d="M11.9941 13.3412C14.4176 13.3412 16.3823 11.3765 16.3823 8.95293C16.3823 6.52937 14.4176 4.5647 11.9941 4.5647C9.57054 4.5647 7.60587 6.52937 7.60587 8.95293C7.60587 11.3765 9.57054 13.3412 11.9941 13.3412Z" fill="#0082FF"/>
<path d="M11.9941 14.804C8.36046 14.808 5.41582 17.7526 5.41177 21.3863C5.41177 21.7902 5.73921 22.1177 6.14313 22.1177L11.9941 23.0353L17.8451 22.1177C18.249 22.1177 18.5764 21.7902 18.5764 21.3863C18.5724 17.7526 15.6278 14.808 11.9941 14.804Z" fill="#0082FF"/>
<path d="M12 0C18.6274 0 24 5.37259 24 12C23.9999 18.6274 18.6274 24 12 24C5.37272 23.9999 5.11538e-05 18.6273 0 12C0 5.37266 5.37268 0.000108769 12 0ZM12 1.59961C6.25626 1.59962 1.59961 6.25625 1.59961 12C1.59963 17.7437 6.25627 22.4004 12 22.4004C17.7437 22.4004 22.4004 17.7437 22.4004 12C22.4004 6.25625 17.7438 1.59961 12 1.59961Z" fill="#0082FF"/>
</svg>
