<svg width="24" height="24" viewBox="0 0 24 24" fill="none" xmlns="http://www.w3.org/2000/svg">
<path d="M22.4893 11.988C21.7289 11.9947 21.09 12.5586 20.9921 13.3093C20.2677 18.2367 15.6679 21.6465 10.7182 20.9254C5.76847 20.2042 2.34321 15.6251 3.06766 10.6977C3.7921 5.77029 8.39193 2.36047 13.3416 3.08165C15.0288 3.32748 16.6121 4.04242 17.9092 5.14427L16.773 6.2754C16.3803 6.66635 16.3804 7.30016 16.7732 7.69102C16.9624 7.87936 17.2193 7.98484 17.4869 7.98409H22.0982C22.6535 7.98409 23.1037 7.53594 23.1037 6.98312V2.39257C23.1035 1.83974 22.6533 1.39169 22.0979 1.39178C21.8314 1.39183 21.5758 1.49726 21.3873 1.68485L20.0479 3.01817C15.065 -1.37667 7.44662 -0.918154 3.03184 4.04237C-1.38295 9.00289 -0.92226 16.5869 4.06067 20.9818C9.0436 25.3767 16.662 24.9181 21.0768 19.9576C22.6308 18.2114 23.6399 16.052 23.9805 13.7438C24.1138 12.9174 23.5489 12.1399 22.7188 12.0072C22.6429 11.995 22.5662 11.9886 22.4893 11.988Z" fill="#0082FF"/>
</svg>
